<?xml version="1.0" encoding="utf-8"?>
<!-- Generator: Adobe Illustrator 18.1.1, SVG Export Plug-In . SVG Version: 6.00 Build 0)  -->
<svg version="1.1" id="Layer_1" xmlns="http://www.w3.org/2000/svg" xmlns:xlink="http://www.w3.org/1999/xlink" x="0px" y="0px"
	 viewBox="0 0 199.7 42.3" enable-background="new 0 0 199.7 42.3" xml:space="preserve">
<g>
	<path fill="#FFFFFF" d="M44.8,17.8h12.6v3.3h-8.8v3.1h7.4v3h-7.4v6.4h-3.8V17.8z"/>
	<path fill="#FFFFFF" d="M58.4,25.7c0-4.6,3.2-8.3,8.5-8.3c5.3,0,8.5,3.7,8.5,8.3c0,4.6-3.2,8.3-8.5,8.3
		C61.6,34,58.4,30.3,58.4,25.7z M71.4,25.7c0-2.8-2-4.6-4.6-4.6c-2.5,0-4.5,1.8-4.5,4.6c0,2.8,2,4.6,4.5,4.6
		C69.4,30.3,71.4,28.5,71.4,25.7z"/>
	<path fill="#FFFFFF" d="M78,17.8h7.5c4,0,6.6,2.1,6.6,5.5c0,2.2-1,3.8-2.6,4.7v0.3l3.6,5v0.3h-4.4L85.5,29h-3.7v4.6H78V17.8z
		 M85.4,21.1h-3.5v4.8h3.5c1.8,0,2.8-0.8,2.8-2.4C88.1,21.9,87.1,21.1,85.4,21.1z"/>
	<path fill="#FFFFFF" d="M102.5,24.2h8V26c0,4.6-2.5,8-7.6,8c-5.3,0-8.5-3.7-8.5-8.3c0-4.6,3.2-8.3,8.5-8.3c4.2,0,6,2,6,2l-2.3,2.9
		c0,0-1.5-1.2-3.8-1.2c-2.6,0-4.5,1.9-4.5,4.6c0,2.8,1.9,4.6,4.5,4.6c2.3,0,3.5-1.4,3.5-2.9v-0.2h-3.9V24.2z"/>
	<path fill="#FFFFFF" d="M124.2,27.2h-7v3.1h8.8v3.3h-12.6V17.8H126v3.3h-8.8v3.1h7V27.2z"/>
	<path fill="#FFFFFF" d="M129.1,17.8h7.5c4,0,6.6,2.1,6.6,5.5c0,2.2-1,3.8-2.6,4.7v0.3l3.6,5v0.3h-4.4l-3.1-4.6h-3.7v4.6h-3.8V17.8z
		 M136.4,21.1h-3.5v4.8h3.5c1.8,0,2.8-0.8,2.8-2.4C139.2,21.9,138.2,21.1,136.4,21.1z"/>
	<path fill="#FFFFFF" d="M145.3,25.7c0-4.6,3.2-8.3,8.5-8.3c5.3,0,8.5,3.7,8.5,8.3c0,4.6-3.2,8.3-8.5,8.3
		C148.5,34,145.3,30.3,145.3,25.7z M158.3,25.7c0-2.8-2-4.6-4.6-4.6c-2.5,0-4.5,1.8-4.5,4.6c0,2.8,2,4.6,4.5,4.6
		C156.3,30.3,158.3,28.5,158.3,25.7z"/>
	<path fill="#FFFFFF" d="M178.5,32.1c0,0-1.8,1.9-5.7,1.9c-5.3,0-8.5-3.7-8.5-8.3c0-4.6,3.2-8.3,8.5-8.3c3.9,0,5.7,1.9,5.7,1.9
		l-2.2,2.9c0,0-1.6-1.2-3.4-1.2c-2.7,0-4.6,1.9-4.6,4.6c0,2.8,1.9,4.6,4.6,4.6c2.2,0,3.4-1.2,3.4-1.2L178.5,32.1z"/>
	<path fill="#FFFFFF" d="M184.4,24.6l6.5-6.8h4.7v0.3l-6.1,6.5l6.1,8.7v0.4h-4.7c-1.4-2.1-2.8-4.2-4.1-6.2l-2.4,2.5v3.7h-3.8V17.8
		h3.8V24.6z"/>
	<path fill="#FFFFFF" d="M198.3,17.5c0.2,0,0.5,0.1,0.7,0.2c0.2,0.1,0.4,0.3,0.5,0.5c0.1,0.2,0.2,0.4,0.2,0.7c0,0.2-0.1,0.5-0.2,0.7
		c-0.1,0.2-0.3,0.4-0.5,0.5s-0.4,0.2-0.7,0.2c-0.2,0-0.5-0.1-0.7-0.2s-0.4-0.3-0.5-0.5c-0.1-0.2-0.2-0.4-0.2-0.7
		c0-0.2,0.1-0.5,0.2-0.7s0.3-0.4,0.5-0.5C197.9,17.6,198.1,17.5,198.3,17.5z M198.3,17.8c-0.2,0-0.4,0-0.5,0.1s-0.3,0.2-0.4,0.4
		c-0.1,0.2-0.1,0.4-0.1,0.6c0,0.2,0,0.4,0.1,0.5c0.1,0.2,0.2,0.3,0.4,0.4s0.4,0.1,0.5,0.1c0.2,0,0.4,0,0.5-0.1s0.3-0.2,0.4-0.4
		c0.1-0.2,0.1-0.4,0.1-0.5c0-0.2,0-0.4-0.1-0.6c-0.1-0.2-0.2-0.3-0.4-0.4C198.7,17.9,198.5,17.8,198.3,17.8z M197.7,19.6v-1.4h0.3
		c0.3,0,0.4,0,0.5,0c0.1,0,0.2,0,0.2,0.1c0.1,0,0.1,0.1,0.1,0.1c0,0.1,0.1,0.1,0.1,0.2c0,0.1,0,0.2-0.1,0.3
		c-0.1,0.1-0.2,0.1-0.3,0.1c0,0,0.1,0,0.1,0.1c0,0,0.1,0.1,0.1,0.1c0,0,0,0.1,0.1,0.2l0.2,0.3h-0.4l-0.1-0.2
		c-0.1-0.2-0.1-0.3-0.2-0.3s-0.1-0.1-0.2-0.1H198v0.6H197.7z M198,18.8h0.1c0.2,0,0.3,0,0.3,0s0.1,0,0.1-0.1s0-0.1,0-0.1
		c0,0,0-0.1,0-0.1c0,0-0.1-0.1-0.1-0.1c0,0-0.1,0-0.3,0H198V18.8z"/>
	<polygon fill="#FFFFFF" points="25.4,3.7 12.9,25.6 17,32.8 29.5,10.8 	"/>
	<polygon fill="#FFFFFF" points="31.6,14.5 19.1,36.5 22.4,42.3 28.5,42.3 37.9,25.7 37.9,25.7 	"/>
	<polygon fill="#FFFFFF" points="11.3,4 0,23.8 9.8,23.8 23.4,0 	"/>
	<polygon fill="#FFFFFF" points="18.1,42.3 9.8,27.6 0,27.5 8.4,42.3 	"/>
</g>
</svg>
