<?xml version="1.0" encoding="UTF-8"?>
<svg width="36px" height="36px" viewBox="0 0 36 36" version="1.1" xmlns="http://www.w3.org/2000/svg" xmlns:xlink="http://www.w3.org/1999/xlink">
    <!-- Generator: Sketch 45.2 (43514) - http://www.bohemiancoding.com/sketch -->
    <title>security-lifesaver</title>
    <desc>Created with Sketch.</desc>
    <defs></defs>
    <g id="Page-2" stroke="none" stroke-width="1" fill="none" fill-rule="evenodd">
        <g id="security-lifesaver" fill-rule="nonzero">
            <path d="M19.08,10.26 L19.32,10.26 L19.08,10.26 Z" id="Shape" fill="#243858"></path>
            <path d="M19.32,25.71 L19.08,25.71 L19.32,25.71 Z" id="Shape" fill="#243858"></path>
            <path d="M10.49,15.65 L10.49,15.8 L10.49,15.8 C11.2306093,13.2715831 13.1916724,11.2842222 15.71,10.51 L15.65,10.51 L15.65,1.92 C8.54153893,2.95859054 2.95859054,8.54153893 1.92,15.65 L10.49,15.65 Z" id="Shape" fill="#333333"></path>
            <path d="M25.71,16.68 L25.71,16.92 L25.71,16.68 Z" id="Shape" fill="#243858"></path>
            <path d="M20.35,10.53 L20.35,10.53 C22.7888619,11.3006414 24.6993586,13.2111381 25.47,15.65 L34.08,15.65 C33.0414095,8.54153893 27.4584611,2.95859054 20.35,1.92 L20.35,10.53 Z" id="Shape" fill="#333333"></path>
            <path d="M16.71,10.29 L16.95,10.29 L16.71,10.29 Z" id="Shape" fill="#243858"></path>
            <path d="M25.71,19.32 L25.71,19.08 L25.71,19.32 Z" id="Shape" fill="#243858"></path>
            <path d="M10.29,19.29 L10.29,19.05 L10.29,19.29 Z" id="Shape" fill="#243858"></path>
            <path d="M25.47,20.35 C24.7008512,22.7897679 22.7897679,24.7008512 20.35,25.47 L20.35,25.47 L20.35,34.08 C27.4584611,33.0414095 33.0414095,27.4584611 34.08,20.35 L25.47,20.35 Z" id="Shape" fill="#333333"></path>
            <path d="M16.68,25.71 L16.92,25.71 L16.68,25.71 Z" id="Shape" fill="#243858"></path>
            <path d="M15.65,25.47 C13.1885336,24.6945509 11.266345,22.7574036 10.51,20.29 L10.51,20.29 L10.51,20.36 L1.92,20.36 C2.9626345,27.4645728 8.54466944,33.0425422 15.65,34.08 L15.65,25.47 Z" id="Shape" fill="#333333"></path>
            <path d="M10.25,17 L10.25,16.81 L10.25,17 Z" id="Shape" fill="#243858"></path>
            <g id="Group" opacity="0.5" fill="#333333">
                <path d="M10.18,18 C10.1823007,17.2585208 10.2900462,16.5211372 10.5,15.81 L10.5,15.66 L2,15.66 C0.8954305,15.66 1.3527075e-16,16.5554305 0,17.66 L0,18.36 C1.3527075e-16,19.4645695 0.8954305,20.36 2,20.36 L10.52,20.36 L10.52,20.29 C10.2936766,19.5477635 10.1790878,18.7759745 10.18,18 L10.18,18 Z" id="Shape"></path>
                <path d="M18,10.17 C18.7971029,10.1695294 19.5895924,10.290932 20.35,10.53 L20.35,2 C20.35,0.8954305 19.4545695,6.76353751e-17 18.35,0 L17.65,0 C16.5454305,-6.76353751e-17 15.65,0.8954305 15.65,2 L15.65,10.52 L15.71,10.52 C16.4517235,10.2902886 17.2235235,10.1723279 18,10.17 L18,10.17 Z" id="Shape"></path>
                <path d="M25.47,15.65 C25.9500089,17.1798993 25.9500089,18.8201007 25.47,20.35 L34,20.35 C35.1045695,20.35 36,19.4545695 36,18.35 L36,17.65 C36,16.5454305 35.1045695,15.65 34,15.65 L25.47,15.65 Z" id="Shape"></path>
                <path d="M18,25.83 C17.2028971,25.8304706 16.4104076,25.709068 15.65,25.47 L15.65,34 C15.65,35.1045695 16.5454305,36 17.65,36 L18.35,36 C19.4545695,36 20.35,35.1045695 20.35,34 L20.35,25.47 C19.5895924,25.709068 18.7971029,25.8304706 18,25.83 L18,25.83 Z" id="Shape"></path>
            </g>
        </g>
    </g>
</svg>